<mxfile host="app.diagrams.net" agent="Mozilla/5.0 (Windows NT 10.0; Win64; x64) AppleWebKit/537.36 (KHTML, like Gecko) Chrome/140.0.0.0 Safari/537.36" version="28.2.5">
  <diagram name="Page-1" id="41tfmTT2E9utkGwDc8mV">
    <mxGraphModel dx="1678" dy="874" grid="1" gridSize="10" guides="1" tooltips="1" connect="1" arrows="1" fold="1" page="1" pageScale="1" pageWidth="3300" pageHeight="4681" math="0" shadow="0">
      <root>
        <mxCell id="0" />
        <mxCell id="1" parent="0" />
        <mxCell id="Vlk8YkCDMo3DPatIVNs5-3" value="" style="edgeStyle=orthogonalEdgeStyle;rounded=0;orthogonalLoop=1;jettySize=auto;html=1;" edge="1" parent="1" source="Vlk8YkCDMo3DPatIVNs5-1" target="Vlk8YkCDMo3DPatIVNs5-2">
          <mxGeometry relative="1" as="geometry" />
        </mxCell>
        <mxCell id="Vlk8YkCDMo3DPatIVNs5-1" value="Start" style="rounded=1;whiteSpace=wrap;html=1;" vertex="1" parent="1">
          <mxGeometry x="250" y="60" width="120" height="60" as="geometry" />
        </mxCell>
        <mxCell id="Vlk8YkCDMo3DPatIVNs5-5" value="" style="edgeStyle=orthogonalEdgeStyle;rounded=0;orthogonalLoop=1;jettySize=auto;html=1;" edge="1" parent="1" source="Vlk8YkCDMo3DPatIVNs5-2" target="Vlk8YkCDMo3DPatIVNs5-4">
          <mxGeometry relative="1" as="geometry" />
        </mxCell>
        <mxCell id="Vlk8YkCDMo3DPatIVNs5-2" value="array" style="shape=parallelogram;perimeter=parallelogramPerimeter;whiteSpace=wrap;html=1;fixedSize=1;" vertex="1" parent="1">
          <mxGeometry x="250" y="160" width="120" height="60" as="geometry" />
        </mxCell>
        <mxCell id="Vlk8YkCDMo3DPatIVNs5-7" value="" style="edgeStyle=orthogonalEdgeStyle;rounded=0;orthogonalLoop=1;jettySize=auto;html=1;" edge="1" parent="1" source="Vlk8YkCDMo3DPatIVNs5-4" target="Vlk8YkCDMo3DPatIVNs5-6">
          <mxGeometry relative="1" as="geometry" />
        </mxCell>
        <mxCell id="Vlk8YkCDMo3DPatIVNs5-4" value="i = 0&lt;div&gt;size = array.length()&lt;/div&gt;&lt;div&gt;cem = 0&lt;/div&gt;" style="whiteSpace=wrap;html=1;" vertex="1" parent="1">
          <mxGeometry x="250" y="270" width="120" height="60" as="geometry" />
        </mxCell>
        <mxCell id="Vlk8YkCDMo3DPatIVNs5-14" value="" style="edgeStyle=orthogonalEdgeStyle;rounded=0;orthogonalLoop=1;jettySize=auto;html=1;" edge="1" parent="1" source="Vlk8YkCDMo3DPatIVNs5-6" target="Vlk8YkCDMo3DPatIVNs5-13">
          <mxGeometry relative="1" as="geometry" />
        </mxCell>
        <mxCell id="Vlk8YkCDMo3DPatIVNs5-23" value="TRUE" style="edgeLabel;html=1;align=center;verticalAlign=middle;resizable=0;points=[];" vertex="1" connectable="0" parent="Vlk8YkCDMo3DPatIVNs5-14">
          <mxGeometry x="-0.6164" y="-2" relative="1" as="geometry">
            <mxPoint as="offset" />
          </mxGeometry>
        </mxCell>
        <mxCell id="Vlk8YkCDMo3DPatIVNs5-25" value="" style="edgeStyle=orthogonalEdgeStyle;rounded=0;orthogonalLoop=1;jettySize=auto;html=1;" edge="1" parent="1" source="Vlk8YkCDMo3DPatIVNs5-6" target="Vlk8YkCDMo3DPatIVNs5-24">
          <mxGeometry relative="1" as="geometry" />
        </mxCell>
        <mxCell id="Vlk8YkCDMo3DPatIVNs5-6" value="i &amp;lt; size" style="rhombus;whiteSpace=wrap;html=1;" vertex="1" parent="1">
          <mxGeometry x="265" y="370" width="90" height="80" as="geometry" />
        </mxCell>
        <mxCell id="Vlk8YkCDMo3DPatIVNs5-15" style="edgeStyle=orthogonalEdgeStyle;rounded=0;orthogonalLoop=1;jettySize=auto;html=1;entryX=0.5;entryY=0;entryDx=0;entryDy=0;" edge="1" parent="1" source="Vlk8YkCDMo3DPatIVNs5-13" target="Vlk8YkCDMo3DPatIVNs5-16">
          <mxGeometry relative="1" as="geometry">
            <mxPoint x="190" y="580" as="targetPoint" />
            <Array as="points">
              <mxPoint x="190" y="520" />
            </Array>
          </mxGeometry>
        </mxCell>
        <mxCell id="Vlk8YkCDMo3DPatIVNs5-19" value="TRUE" style="edgeLabel;html=1;align=center;verticalAlign=middle;resizable=0;points=[];" vertex="1" connectable="0" parent="Vlk8YkCDMo3DPatIVNs5-15">
          <mxGeometry x="-0.4492" relative="1" as="geometry">
            <mxPoint as="offset" />
          </mxGeometry>
        </mxCell>
        <mxCell id="Vlk8YkCDMo3DPatIVNs5-20" style="edgeStyle=orthogonalEdgeStyle;rounded=0;orthogonalLoop=1;jettySize=auto;html=1;entryX=0.5;entryY=0;entryDx=0;entryDy=0;" edge="1" parent="1" source="Vlk8YkCDMo3DPatIVNs5-13" target="Vlk8YkCDMo3DPatIVNs5-17">
          <mxGeometry relative="1" as="geometry">
            <mxPoint x="310" y="680" as="targetPoint" />
            <Array as="points">
              <mxPoint x="440" y="520" />
              <mxPoint x="440" y="680" />
              <mxPoint x="310" y="680" />
            </Array>
          </mxGeometry>
        </mxCell>
        <mxCell id="Vlk8YkCDMo3DPatIVNs5-22" value="FALSE" style="edgeLabel;html=1;align=center;verticalAlign=middle;resizable=0;points=[];" vertex="1" connectable="0" parent="Vlk8YkCDMo3DPatIVNs5-20">
          <mxGeometry x="-0.8597" relative="1" as="geometry">
            <mxPoint as="offset" />
          </mxGeometry>
        </mxCell>
        <mxCell id="Vlk8YkCDMo3DPatIVNs5-13" value="array[i] % 2 != 0" style="rhombus;whiteSpace=wrap;html=1;" vertex="1" parent="1">
          <mxGeometry x="232.5" y="480" width="155" height="80" as="geometry" />
        </mxCell>
        <mxCell id="Vlk8YkCDMo3DPatIVNs5-18" value="" style="edgeStyle=orthogonalEdgeStyle;rounded=0;orthogonalLoop=1;jettySize=auto;html=1;" edge="1" parent="1" source="Vlk8YkCDMo3DPatIVNs5-16" target="Vlk8YkCDMo3DPatIVNs5-17">
          <mxGeometry relative="1" as="geometry" />
        </mxCell>
        <mxCell id="Vlk8YkCDMo3DPatIVNs5-16" value="cem = cem + array[i]" style="rounded=0;whiteSpace=wrap;html=1;" vertex="1" parent="1">
          <mxGeometry x="130" y="590" width="120" height="60" as="geometry" />
        </mxCell>
        <mxCell id="Vlk8YkCDMo3DPatIVNs5-21" style="edgeStyle=orthogonalEdgeStyle;rounded=0;orthogonalLoop=1;jettySize=auto;html=1;" edge="1" parent="1" source="Vlk8YkCDMo3DPatIVNs5-17">
          <mxGeometry relative="1" as="geometry">
            <mxPoint x="310" y="350" as="targetPoint" />
            <Array as="points">
              <mxPoint x="100" y="740" />
              <mxPoint x="100" y="350" />
            </Array>
          </mxGeometry>
        </mxCell>
        <mxCell id="Vlk8YkCDMo3DPatIVNs5-17" value="i = i + 1" style="whiteSpace=wrap;html=1;rounded=0;" vertex="1" parent="1">
          <mxGeometry x="250" y="710" width="120" height="60" as="geometry" />
        </mxCell>
        <mxCell id="Vlk8YkCDMo3DPatIVNs5-27" value="" style="edgeStyle=orthogonalEdgeStyle;rounded=0;orthogonalLoop=1;jettySize=auto;html=1;" edge="1" parent="1" source="Vlk8YkCDMo3DPatIVNs5-24" target="Vlk8YkCDMo3DPatIVNs5-26">
          <mxGeometry relative="1" as="geometry" />
        </mxCell>
        <mxCell id="Vlk8YkCDMo3DPatIVNs5-24" value="cem" style="shape=document;whiteSpace=wrap;html=1;boundedLbl=1;" vertex="1" parent="1">
          <mxGeometry x="490" y="510" width="120" height="80" as="geometry" />
        </mxCell>
        <mxCell id="Vlk8YkCDMo3DPatIVNs5-26" value="End" style="rounded=1;whiteSpace=wrap;html=1;" vertex="1" parent="1">
          <mxGeometry x="490" y="680" width="120" height="60" as="geometry" />
        </mxCell>
        <mxCell id="Vlk8YkCDMo3DPatIVNs5-30" value="" style="edgeStyle=orthogonalEdgeStyle;rounded=0;orthogonalLoop=1;jettySize=auto;html=1;" edge="1" parent="1" source="Vlk8YkCDMo3DPatIVNs5-31" target="Vlk8YkCDMo3DPatIVNs5-33">
          <mxGeometry relative="1" as="geometry" />
        </mxCell>
        <mxCell id="Vlk8YkCDMo3DPatIVNs5-31" value="Start" style="rounded=1;whiteSpace=wrap;html=1;" vertex="1" parent="1">
          <mxGeometry x="1200" y="30" width="120" height="60" as="geometry" />
        </mxCell>
        <mxCell id="Vlk8YkCDMo3DPatIVNs5-32" value="" style="edgeStyle=orthogonalEdgeStyle;rounded=0;orthogonalLoop=1;jettySize=auto;html=1;" edge="1" parent="1" source="Vlk8YkCDMo3DPatIVNs5-33" target="Vlk8YkCDMo3DPatIVNs5-35">
          <mxGeometry relative="1" as="geometry" />
        </mxCell>
        <mxCell id="Vlk8YkCDMo3DPatIVNs5-33" value="array" style="shape=parallelogram;perimeter=parallelogramPerimeter;whiteSpace=wrap;html=1;fixedSize=1;" vertex="1" parent="1">
          <mxGeometry x="1200" y="130" width="120" height="60" as="geometry" />
        </mxCell>
        <mxCell id="Vlk8YkCDMo3DPatIVNs5-34" value="" style="edgeStyle=orthogonalEdgeStyle;rounded=0;orthogonalLoop=1;jettySize=auto;html=1;" edge="1" parent="1" source="Vlk8YkCDMo3DPatIVNs5-35" target="Vlk8YkCDMo3DPatIVNs5-39">
          <mxGeometry relative="1" as="geometry" />
        </mxCell>
        <mxCell id="Vlk8YkCDMo3DPatIVNs5-35" value="i = 0&lt;div&gt;size = array.length()&lt;/div&gt;&lt;div&gt;say = 0&lt;/div&gt;" style="whiteSpace=wrap;html=1;" vertex="1" parent="1">
          <mxGeometry x="1200" y="240" width="120" height="60" as="geometry" />
        </mxCell>
        <mxCell id="Vlk8YkCDMo3DPatIVNs5-36" value="" style="edgeStyle=orthogonalEdgeStyle;rounded=0;orthogonalLoop=1;jettySize=auto;html=1;" edge="1" parent="1" source="Vlk8YkCDMo3DPatIVNs5-39" target="Vlk8YkCDMo3DPatIVNs5-44">
          <mxGeometry relative="1" as="geometry" />
        </mxCell>
        <mxCell id="Vlk8YkCDMo3DPatIVNs5-37" value="TRUE" style="edgeLabel;html=1;align=center;verticalAlign=middle;resizable=0;points=[];" vertex="1" connectable="0" parent="Vlk8YkCDMo3DPatIVNs5-36">
          <mxGeometry x="-0.6164" y="-2" relative="1" as="geometry">
            <mxPoint as="offset" />
          </mxGeometry>
        </mxCell>
        <mxCell id="Vlk8YkCDMo3DPatIVNs5-38" value="" style="edgeStyle=orthogonalEdgeStyle;rounded=0;orthogonalLoop=1;jettySize=auto;html=1;" edge="1" parent="1" source="Vlk8YkCDMo3DPatIVNs5-39" target="Vlk8YkCDMo3DPatIVNs5-50">
          <mxGeometry relative="1" as="geometry" />
        </mxCell>
        <mxCell id="Vlk8YkCDMo3DPatIVNs5-39" value="i &amp;lt; size" style="rhombus;whiteSpace=wrap;html=1;" vertex="1" parent="1">
          <mxGeometry x="1215" y="340" width="90" height="80" as="geometry" />
        </mxCell>
        <mxCell id="Vlk8YkCDMo3DPatIVNs5-40" style="edgeStyle=orthogonalEdgeStyle;rounded=0;orthogonalLoop=1;jettySize=auto;html=1;entryX=0.5;entryY=0;entryDx=0;entryDy=0;" edge="1" parent="1" source="Vlk8YkCDMo3DPatIVNs5-44" target="Vlk8YkCDMo3DPatIVNs5-46">
          <mxGeometry relative="1" as="geometry">
            <mxPoint x="1140" y="550" as="targetPoint" />
            <Array as="points">
              <mxPoint x="1140" y="490" />
            </Array>
          </mxGeometry>
        </mxCell>
        <mxCell id="Vlk8YkCDMo3DPatIVNs5-41" value="TRUE" style="edgeLabel;html=1;align=center;verticalAlign=middle;resizable=0;points=[];" vertex="1" connectable="0" parent="Vlk8YkCDMo3DPatIVNs5-40">
          <mxGeometry x="-0.4492" relative="1" as="geometry">
            <mxPoint as="offset" />
          </mxGeometry>
        </mxCell>
        <mxCell id="Vlk8YkCDMo3DPatIVNs5-42" style="edgeStyle=orthogonalEdgeStyle;rounded=0;orthogonalLoop=1;jettySize=auto;html=1;entryX=0.5;entryY=0;entryDx=0;entryDy=0;" edge="1" parent="1" source="Vlk8YkCDMo3DPatIVNs5-44" target="Vlk8YkCDMo3DPatIVNs5-48">
          <mxGeometry relative="1" as="geometry">
            <mxPoint x="1260" y="650" as="targetPoint" />
            <Array as="points">
              <mxPoint x="1390" y="490" />
              <mxPoint x="1390" y="650" />
              <mxPoint x="1260" y="650" />
            </Array>
          </mxGeometry>
        </mxCell>
        <mxCell id="Vlk8YkCDMo3DPatIVNs5-43" value="FALSE" style="edgeLabel;html=1;align=center;verticalAlign=middle;resizable=0;points=[];" vertex="1" connectable="0" parent="Vlk8YkCDMo3DPatIVNs5-42">
          <mxGeometry x="-0.8597" relative="1" as="geometry">
            <mxPoint as="offset" />
          </mxGeometry>
        </mxCell>
        <mxCell id="Vlk8YkCDMo3DPatIVNs5-44" value="array[i] % 2 == 0" style="rhombus;whiteSpace=wrap;html=1;" vertex="1" parent="1">
          <mxGeometry x="1182.5" y="450" width="155" height="80" as="geometry" />
        </mxCell>
        <mxCell id="Vlk8YkCDMo3DPatIVNs5-45" value="" style="edgeStyle=orthogonalEdgeStyle;rounded=0;orthogonalLoop=1;jettySize=auto;html=1;" edge="1" parent="1" source="Vlk8YkCDMo3DPatIVNs5-46" target="Vlk8YkCDMo3DPatIVNs5-48">
          <mxGeometry relative="1" as="geometry" />
        </mxCell>
        <mxCell id="Vlk8YkCDMo3DPatIVNs5-46" value="say = say + 1" style="rounded=0;whiteSpace=wrap;html=1;" vertex="1" parent="1">
          <mxGeometry x="1080" y="560" width="120" height="60" as="geometry" />
        </mxCell>
        <mxCell id="Vlk8YkCDMo3DPatIVNs5-47" style="edgeStyle=orthogonalEdgeStyle;rounded=0;orthogonalLoop=1;jettySize=auto;html=1;" edge="1" parent="1" source="Vlk8YkCDMo3DPatIVNs5-48">
          <mxGeometry relative="1" as="geometry">
            <mxPoint x="1260" y="320" as="targetPoint" />
            <Array as="points">
              <mxPoint x="1050" y="710" />
              <mxPoint x="1050" y="320" />
            </Array>
          </mxGeometry>
        </mxCell>
        <mxCell id="Vlk8YkCDMo3DPatIVNs5-48" value="i = i + 1" style="whiteSpace=wrap;html=1;rounded=0;" vertex="1" parent="1">
          <mxGeometry x="1200" y="680" width="120" height="60" as="geometry" />
        </mxCell>
        <mxCell id="Vlk8YkCDMo3DPatIVNs5-49" value="" style="edgeStyle=orthogonalEdgeStyle;rounded=0;orthogonalLoop=1;jettySize=auto;html=1;" edge="1" parent="1" source="Vlk8YkCDMo3DPatIVNs5-50" target="Vlk8YkCDMo3DPatIVNs5-51">
          <mxGeometry relative="1" as="geometry" />
        </mxCell>
        <mxCell id="Vlk8YkCDMo3DPatIVNs5-50" value="say" style="shape=document;whiteSpace=wrap;html=1;boundedLbl=1;" vertex="1" parent="1">
          <mxGeometry x="1440" y="480" width="120" height="80" as="geometry" />
        </mxCell>
        <mxCell id="Vlk8YkCDMo3DPatIVNs5-51" value="End" style="rounded=1;whiteSpace=wrap;html=1;" vertex="1" parent="1">
          <mxGeometry x="1440" y="650" width="120" height="60" as="geometry" />
        </mxCell>
        <mxCell id="Vlk8YkCDMo3DPatIVNs5-58" value="" style="edgeStyle=orthogonalEdgeStyle;rounded=0;orthogonalLoop=1;jettySize=auto;html=1;" edge="1" parent="1" source="Vlk8YkCDMo3DPatIVNs5-52" target="Vlk8YkCDMo3DPatIVNs5-57">
          <mxGeometry relative="1" as="geometry" />
        </mxCell>
        <mxCell id="Vlk8YkCDMo3DPatIVNs5-52" value="Start" style="rounded=1;whiteSpace=wrap;html=1;" vertex="1" parent="1">
          <mxGeometry x="2120" y="30" width="120" height="60" as="geometry" />
        </mxCell>
        <mxCell id="Vlk8YkCDMo3DPatIVNs5-60" value="" style="edgeStyle=orthogonalEdgeStyle;rounded=0;orthogonalLoop=1;jettySize=auto;html=1;" edge="1" parent="1" source="Vlk8YkCDMo3DPatIVNs5-57" target="Vlk8YkCDMo3DPatIVNs5-59">
          <mxGeometry relative="1" as="geometry" />
        </mxCell>
        <mxCell id="Vlk8YkCDMo3DPatIVNs5-57" value="n" style="shape=parallelogram;perimeter=parallelogramPerimeter;whiteSpace=wrap;html=1;fixedSize=1;" vertex="1" parent="1">
          <mxGeometry x="2120" y="130" width="120" height="60" as="geometry" />
        </mxCell>
        <mxCell id="Vlk8YkCDMo3DPatIVNs5-62" value="" style="edgeStyle=orthogonalEdgeStyle;rounded=0;orthogonalLoop=1;jettySize=auto;html=1;" edge="1" parent="1" source="Vlk8YkCDMo3DPatIVNs5-59" target="Vlk8YkCDMo3DPatIVNs5-61">
          <mxGeometry relative="1" as="geometry" />
        </mxCell>
        <mxCell id="Vlk8YkCDMo3DPatIVNs5-65" value="TRUE" style="edgeLabel;html=1;align=center;verticalAlign=middle;resizable=0;points=[];" vertex="1" connectable="0" parent="Vlk8YkCDMo3DPatIVNs5-62">
          <mxGeometry x="-0.4023" y="1" relative="1" as="geometry">
            <mxPoint as="offset" />
          </mxGeometry>
        </mxCell>
        <mxCell id="Vlk8YkCDMo3DPatIVNs5-67" value="" style="edgeStyle=orthogonalEdgeStyle;rounded=0;orthogonalLoop=1;jettySize=auto;html=1;" edge="1" parent="1" source="Vlk8YkCDMo3DPatIVNs5-59" target="Vlk8YkCDMo3DPatIVNs5-66">
          <mxGeometry relative="1" as="geometry" />
        </mxCell>
        <mxCell id="Vlk8YkCDMo3DPatIVNs5-88" value="FALSE" style="edgeLabel;html=1;align=center;verticalAlign=middle;resizable=0;points=[];" vertex="1" connectable="0" parent="Vlk8YkCDMo3DPatIVNs5-67">
          <mxGeometry x="-0.3836" y="2" relative="1" as="geometry">
            <mxPoint as="offset" />
          </mxGeometry>
        </mxCell>
        <mxCell id="Vlk8YkCDMo3DPatIVNs5-59" value="n &amp;lt;= 1" style="rhombus;whiteSpace=wrap;html=1;" vertex="1" parent="1">
          <mxGeometry x="2130" y="230" width="100" height="80" as="geometry" />
        </mxCell>
        <mxCell id="Vlk8YkCDMo3DPatIVNs5-84" style="edgeStyle=orthogonalEdgeStyle;rounded=0;orthogonalLoop=1;jettySize=auto;html=1;entryX=0;entryY=0.5;entryDx=0;entryDy=0;" edge="1" parent="1" source="Vlk8YkCDMo3DPatIVNs5-61" target="Vlk8YkCDMo3DPatIVNs5-75">
          <mxGeometry relative="1" as="geometry">
            <mxPoint x="1970" y="810" as="targetPoint" />
            <Array as="points">
              <mxPoint x="1960" y="810" />
            </Array>
          </mxGeometry>
        </mxCell>
        <mxCell id="Vlk8YkCDMo3DPatIVNs5-61" value="Sade eded deyil" style="shape=document;whiteSpace=wrap;html=1;boundedLbl=1;" vertex="1" parent="1">
          <mxGeometry x="1910" y="320" width="120" height="80" as="geometry" />
        </mxCell>
        <mxCell id="Vlk8YkCDMo3DPatIVNs5-69" value="" style="edgeStyle=orthogonalEdgeStyle;rounded=0;orthogonalLoop=1;jettySize=auto;html=1;" edge="1" parent="1" source="Vlk8YkCDMo3DPatIVNs5-66" target="Vlk8YkCDMo3DPatIVNs5-68">
          <mxGeometry relative="1" as="geometry" />
        </mxCell>
        <mxCell id="Vlk8YkCDMo3DPatIVNs5-66" value="i = 2" style="whiteSpace=wrap;html=1;" vertex="1" parent="1">
          <mxGeometry x="2280" y="320" width="120" height="60" as="geometry" />
        </mxCell>
        <mxCell id="Vlk8YkCDMo3DPatIVNs5-71" value="" style="edgeStyle=orthogonalEdgeStyle;rounded=0;orthogonalLoop=1;jettySize=auto;html=1;" edge="1" parent="1" source="Vlk8YkCDMo3DPatIVNs5-68" target="Vlk8YkCDMo3DPatIVNs5-70">
          <mxGeometry relative="1" as="geometry" />
        </mxCell>
        <mxCell id="Vlk8YkCDMo3DPatIVNs5-72" value="TRUE" style="edgeLabel;html=1;align=center;verticalAlign=middle;resizable=0;points=[];" vertex="1" connectable="0" parent="Vlk8YkCDMo3DPatIVNs5-71">
          <mxGeometry x="-0.4357" relative="1" as="geometry">
            <mxPoint as="offset" />
          </mxGeometry>
        </mxCell>
        <mxCell id="Vlk8YkCDMo3DPatIVNs5-83" value="" style="edgeStyle=orthogonalEdgeStyle;rounded=0;orthogonalLoop=1;jettySize=auto;html=1;" edge="1" parent="1" source="Vlk8YkCDMo3DPatIVNs5-68" target="Vlk8YkCDMo3DPatIVNs5-82">
          <mxGeometry relative="1" as="geometry" />
        </mxCell>
        <mxCell id="Vlk8YkCDMo3DPatIVNs5-87" value="FALSE" style="edgeLabel;html=1;align=center;verticalAlign=middle;resizable=0;points=[];" vertex="1" connectable="0" parent="Vlk8YkCDMo3DPatIVNs5-83">
          <mxGeometry x="-0.642" y="-1" relative="1" as="geometry">
            <mxPoint as="offset" />
          </mxGeometry>
        </mxCell>
        <mxCell id="Vlk8YkCDMo3DPatIVNs5-68" value="i &amp;lt;= N / 2" style="rhombus;whiteSpace=wrap;html=1;" vertex="1" parent="1">
          <mxGeometry x="2270" y="420" width="140" height="80" as="geometry" />
        </mxCell>
        <mxCell id="Vlk8YkCDMo3DPatIVNs5-74" value="" style="edgeStyle=orthogonalEdgeStyle;rounded=0;orthogonalLoop=1;jettySize=auto;html=1;" edge="1" parent="1" source="Vlk8YkCDMo3DPatIVNs5-70" target="Vlk8YkCDMo3DPatIVNs5-73">
          <mxGeometry relative="1" as="geometry" />
        </mxCell>
        <mxCell id="Vlk8YkCDMo3DPatIVNs5-77" value="TRUE" style="edgeLabel;html=1;align=center;verticalAlign=middle;resizable=0;points=[];" vertex="1" connectable="0" parent="Vlk8YkCDMo3DPatIVNs5-74">
          <mxGeometry x="-0.5973" relative="1" as="geometry">
            <mxPoint as="offset" />
          </mxGeometry>
        </mxCell>
        <mxCell id="Vlk8YkCDMo3DPatIVNs5-79" value="" style="edgeStyle=orthogonalEdgeStyle;rounded=0;orthogonalLoop=1;jettySize=auto;html=1;" edge="1" parent="1" source="Vlk8YkCDMo3DPatIVNs5-70" target="Vlk8YkCDMo3DPatIVNs5-78">
          <mxGeometry relative="1" as="geometry" />
        </mxCell>
        <mxCell id="Vlk8YkCDMo3DPatIVNs5-80" value="FALSE" style="edgeLabel;html=1;align=center;verticalAlign=middle;resizable=0;points=[];" vertex="1" connectable="0" parent="Vlk8YkCDMo3DPatIVNs5-79">
          <mxGeometry x="-0.3603" y="1" relative="1" as="geometry">
            <mxPoint as="offset" />
          </mxGeometry>
        </mxCell>
        <mxCell id="Vlk8YkCDMo3DPatIVNs5-70" value="N % i == 0" style="rhombus;whiteSpace=wrap;html=1;" vertex="1" parent="1">
          <mxGeometry x="2265" y="540" width="150" height="80" as="geometry" />
        </mxCell>
        <mxCell id="Vlk8YkCDMo3DPatIVNs5-86" value="" style="edgeStyle=orthogonalEdgeStyle;rounded=0;orthogonalLoop=1;jettySize=auto;html=1;" edge="1" parent="1" source="Vlk8YkCDMo3DPatIVNs5-73" target="Vlk8YkCDMo3DPatIVNs5-75">
          <mxGeometry relative="1" as="geometry" />
        </mxCell>
        <mxCell id="Vlk8YkCDMo3DPatIVNs5-73" value="Murekkeb eded" style="shape=document;whiteSpace=wrap;html=1;boundedLbl=1;" vertex="1" parent="1">
          <mxGeometry x="2140" y="660" width="120" height="80" as="geometry" />
        </mxCell>
        <mxCell id="Vlk8YkCDMo3DPatIVNs5-75" value="End" style="rounded=1;whiteSpace=wrap;html=1;" vertex="1" parent="1">
          <mxGeometry x="2140" y="780" width="120" height="60" as="geometry" />
        </mxCell>
        <mxCell id="Vlk8YkCDMo3DPatIVNs5-81" style="edgeStyle=orthogonalEdgeStyle;rounded=0;orthogonalLoop=1;jettySize=auto;html=1;" edge="1" parent="1" source="Vlk8YkCDMo3DPatIVNs5-78">
          <mxGeometry relative="1" as="geometry">
            <mxPoint x="2340" y="400" as="targetPoint" />
            <Array as="points">
              <mxPoint x="2580" y="670" />
              <mxPoint x="2580" y="400" />
            </Array>
          </mxGeometry>
        </mxCell>
        <mxCell id="Vlk8YkCDMo3DPatIVNs5-78" value="i = i + 1" style="whiteSpace=wrap;html=1;" vertex="1" parent="1">
          <mxGeometry x="2430" y="640" width="120" height="60" as="geometry" />
        </mxCell>
        <mxCell id="Vlk8YkCDMo3DPatIVNs5-85" style="edgeStyle=orthogonalEdgeStyle;rounded=0;orthogonalLoop=1;jettySize=auto;html=1;entryX=-0.015;entryY=0.169;entryDx=0;entryDy=0;entryPerimeter=0;" edge="1" parent="1" source="Vlk8YkCDMo3DPatIVNs5-82" target="Vlk8YkCDMo3DPatIVNs5-75">
          <mxGeometry relative="1" as="geometry">
            <mxPoint x="2080" y="790" as="targetPoint" />
            <Array as="points">
              <mxPoint x="2060" y="790" />
            </Array>
          </mxGeometry>
        </mxCell>
        <mxCell id="Vlk8YkCDMo3DPatIVNs5-82" value="Sade eded" style="shape=document;whiteSpace=wrap;html=1;boundedLbl=1;" vertex="1" parent="1">
          <mxGeometry x="2020" y="560" width="120" height="80" as="geometry" />
        </mxCell>
        <mxCell id="Vlk8YkCDMo3DPatIVNs5-91" value="" style="edgeStyle=orthogonalEdgeStyle;rounded=0;orthogonalLoop=1;jettySize=auto;html=1;" edge="1" parent="1" source="Vlk8YkCDMo3DPatIVNs5-89" target="Vlk8YkCDMo3DPatIVNs5-90">
          <mxGeometry relative="1" as="geometry" />
        </mxCell>
        <mxCell id="Vlk8YkCDMo3DPatIVNs5-89" value="Start" style="rounded=1;whiteSpace=wrap;html=1;" vertex="1" parent="1">
          <mxGeometry x="1270" y="920" width="120" height="60" as="geometry" />
        </mxCell>
        <mxCell id="Vlk8YkCDMo3DPatIVNs5-93" value="" style="edgeStyle=orthogonalEdgeStyle;rounded=0;orthogonalLoop=1;jettySize=auto;html=1;" edge="1" parent="1" source="Vlk8YkCDMo3DPatIVNs5-90" target="Vlk8YkCDMo3DPatIVNs5-92">
          <mxGeometry relative="1" as="geometry" />
        </mxCell>
        <mxCell id="Vlk8YkCDMo3DPatIVNs5-90" value="array" style="shape=parallelogram;perimeter=parallelogramPerimeter;whiteSpace=wrap;html=1;fixedSize=1;" vertex="1" parent="1">
          <mxGeometry x="1270" y="1030" width="120" height="60" as="geometry" />
        </mxCell>
        <mxCell id="Vlk8YkCDMo3DPatIVNs5-95" value="" style="edgeStyle=orthogonalEdgeStyle;rounded=0;orthogonalLoop=1;jettySize=auto;html=1;" edge="1" parent="1" source="Vlk8YkCDMo3DPatIVNs5-92" target="Vlk8YkCDMo3DPatIVNs5-94">
          <mxGeometry relative="1" as="geometry" />
        </mxCell>
        <mxCell id="Vlk8YkCDMo3DPatIVNs5-92" value="i = 0&lt;div&gt;size = array.length()&lt;/div&gt;" style="whiteSpace=wrap;html=1;" vertex="1" parent="1">
          <mxGeometry x="1270" y="1140" width="120" height="60" as="geometry" />
        </mxCell>
        <mxCell id="Vlk8YkCDMo3DPatIVNs5-97" value="" style="edgeStyle=orthogonalEdgeStyle;rounded=0;orthogonalLoop=1;jettySize=auto;html=1;" edge="1" parent="1" source="Vlk8YkCDMo3DPatIVNs5-94" target="Vlk8YkCDMo3DPatIVNs5-96">
          <mxGeometry relative="1" as="geometry" />
        </mxCell>
        <mxCell id="Vlk8YkCDMo3DPatIVNs5-98" value="TRUE" style="edgeLabel;html=1;align=center;verticalAlign=middle;resizable=0;points=[];" vertex="1" connectable="0" parent="Vlk8YkCDMo3DPatIVNs5-97">
          <mxGeometry x="-0.32" relative="1" as="geometry">
            <mxPoint as="offset" />
          </mxGeometry>
        </mxCell>
        <mxCell id="Vlk8YkCDMo3DPatIVNs5-103" value="" style="edgeStyle=orthogonalEdgeStyle;rounded=0;orthogonalLoop=1;jettySize=auto;html=1;" edge="1" parent="1" source="Vlk8YkCDMo3DPatIVNs5-94" target="Vlk8YkCDMo3DPatIVNs5-102">
          <mxGeometry relative="1" as="geometry" />
        </mxCell>
        <mxCell id="Vlk8YkCDMo3DPatIVNs5-94" value="i &amp;lt; size" style="rhombus;whiteSpace=wrap;html=1;" vertex="1" parent="1">
          <mxGeometry x="1285" y="1240" width="90" height="80" as="geometry" />
        </mxCell>
        <mxCell id="Vlk8YkCDMo3DPatIVNs5-100" value="" style="edgeStyle=orthogonalEdgeStyle;rounded=0;orthogonalLoop=1;jettySize=auto;html=1;" edge="1" parent="1" source="Vlk8YkCDMo3DPatIVNs5-96" target="Vlk8YkCDMo3DPatIVNs5-99">
          <mxGeometry relative="1" as="geometry" />
        </mxCell>
        <mxCell id="Vlk8YkCDMo3DPatIVNs5-96" value="array[i] = array[i] ** 2" style="whiteSpace=wrap;html=1;" vertex="1" parent="1">
          <mxGeometry x="1270" y="1370" width="120" height="60" as="geometry" />
        </mxCell>
        <mxCell id="Vlk8YkCDMo3DPatIVNs5-101" style="edgeStyle=orthogonalEdgeStyle;rounded=0;orthogonalLoop=1;jettySize=auto;html=1;" edge="1" parent="1" source="Vlk8YkCDMo3DPatIVNs5-99">
          <mxGeometry relative="1" as="geometry">
            <mxPoint x="1330" y="1220" as="targetPoint" />
            <Array as="points">
              <mxPoint x="1210" y="1500" />
              <mxPoint x="1210" y="1220" />
            </Array>
          </mxGeometry>
        </mxCell>
        <mxCell id="Vlk8YkCDMo3DPatIVNs5-99" value="i = i + 1" style="whiteSpace=wrap;html=1;" vertex="1" parent="1">
          <mxGeometry x="1270" y="1470" width="120" height="60" as="geometry" />
        </mxCell>
        <mxCell id="Vlk8YkCDMo3DPatIVNs5-105" value="" style="edgeStyle=orthogonalEdgeStyle;rounded=0;orthogonalLoop=1;jettySize=auto;html=1;" edge="1" parent="1" source="Vlk8YkCDMo3DPatIVNs5-102" target="Vlk8YkCDMo3DPatIVNs5-104">
          <mxGeometry relative="1" as="geometry" />
        </mxCell>
        <mxCell id="Vlk8YkCDMo3DPatIVNs5-102" value="array" style="shape=document;whiteSpace=wrap;html=1;boundedLbl=1;" vertex="1" parent="1">
          <mxGeometry x="1440" y="1330" width="120" height="80" as="geometry" />
        </mxCell>
        <mxCell id="Vlk8YkCDMo3DPatIVNs5-104" value="End" style="rounded=1;whiteSpace=wrap;html=1;" vertex="1" parent="1">
          <mxGeometry x="1440" y="1450" width="120" height="60" as="geometry" />
        </mxCell>
      </root>
    </mxGraphModel>
  </diagram>
</mxfile>
